<svg width="18" height="11" viewBox="0 0 18 11" fill="none" xmlns="http://www.w3.org/2000/svg">
<path d="M3.1849 0C4.83329 0 5.98137 1.1363 5.98137 2.79058C5.98137 4.45075 4.80974 5.59294 3.14368 5.59294H1.31862V8.49564H0V0H3.1849ZM1.31862 4.48608H2.83158C3.97988 4.48608 4.63308 3.86799 4.63308 2.79647C4.63308 1.72517 3.97965 1.11274 2.83747 1.11274H1.31862V4.48608Z" fill="#29282D"/>
<path d="M6.30847 6.73508C6.30847 5.64589 7.13856 5.02191 8.66917 4.92769L10.3117 4.82758V4.35648C10.3117 3.66795 9.85847 3.29107 9.05194 3.29107C8.38652 3.29107 7.90364 3.63239 7.80398 4.15626H6.61446C6.65002 3.05552 7.68598 2.25488 9.08728 2.25488C10.5943 2.25488 11.5775 3.04375 11.5775 4.26838V8.49536H10.359V7.47683H10.3296C9.98214 8.14203 9.2166 8.55991 8.38652 8.55991C7.16211 8.55991 6.30847 7.83016 6.30847 6.73508ZM10.3117 6.18765V5.71067L8.84584 5.80488C8.02142 5.85788 7.59199 6.16387 7.59199 6.69952C7.59199 7.21773 8.03931 7.55339 8.73984 7.55339C9.63448 7.55339 10.3117 6.98218 10.3117 6.18765Z" fill="#29282D"/>
<path d="M12.6979 10.7678V9.74954C12.7803 9.76109 12.9803 9.77287 13.0863 9.77287C13.6691 9.77287 13.9988 9.52599 14.1991 8.88978L14.3168 8.51313L12.0854 2.33154H13.463L15.0174 7.34739H15.0468L16.601 2.33154H17.9434L15.6296 8.82501C15.0996 10.3146 14.4933 10.8034 13.21 10.8034C13.1099 10.8034 12.786 10.7916 12.6979 10.7678Z" fill="#29282D"/>
</svg>
