<svg width="150" height="20" viewBox="0 0 150 20" fill="none" xmlns="http://www.w3.org/2000/svg">
<path d="M11 16.7494L16.3348 19.8186C17.3118 20.3811 18.5073 19.5496 18.2502 18.498L16.8362 12.7264L21.554 8.83784C22.4153 8.12861 21.9525 6.78352 20.8212 6.69792L14.6123 6.19657L12.1827 0.742855C11.7456 -0.247618 10.2544 -0.247618 9.81734 0.742855L7.38773 6.18435L1.17875 6.6857C0.047509 6.77129 -0.415273 8.11638 0.446015 8.82561L5.16381 12.7141L3.74976 18.4858C3.49266 19.5374 4.68818 20.3689 5.66516 19.8064L11 16.7494Z" fill="#FFDE21"/>
<path d="M43 16.7494L48.3348 19.8186C49.3118 20.3811 50.5073 19.5496 50.2502 18.498L48.8362 12.7264L53.554 8.83784C54.4153 8.12861 53.9525 6.78352 52.8212 6.69792L46.6123 6.19657L44.1827 0.742855C43.7456 -0.247618 42.2544 -0.247618 41.8173 0.742855L39.3877 6.18435L33.1788 6.6857C32.0475 6.77129 31.5847 8.11638 32.446 8.82561L37.1638 12.7141L35.7498 18.4858C35.4927 19.5374 36.6882 20.3689 37.6652 19.8064L43 16.7494Z" fill="#FFDE21"/>
<path d="M75 16.7494L80.3348 19.8186C81.3118 20.3811 82.5073 19.5496 82.2502 18.498L80.8362 12.7264L85.554 8.83784C86.4153 8.12861 85.9525 6.78352 84.8212 6.69792L78.6123 6.19657L76.1827 0.742855C75.7456 -0.247618 74.2544 -0.247618 73.8173 0.742855L71.3877 6.18435L65.1788 6.6857C64.0475 6.77129 63.5847 8.11638 64.446 8.82561L69.1638 12.7141L67.7498 18.4858C67.4927 19.5374 68.6882 20.3689 69.6652 19.8064L75 16.7494Z" fill="#FFDE21"/>
<path d="M107 16.7494L112.335 19.8186C113.312 20.3811 114.507 19.5496 114.25 18.498L112.836 12.7264L117.554 8.83784C118.415 8.12861 117.952 6.78352 116.821 6.69792L110.612 6.19657L108.183 0.742855C107.746 -0.247618 106.254 -0.247618 105.817 0.742855L103.388 6.18435L97.1788 6.6857C96.0475 6.77129 95.5847 8.11638 96.446 8.82561L101.164 12.7141L99.7498 18.4858C99.4927 19.5374 100.688 20.3689 101.665 19.8064L107 16.7494Z" fill="#FFDE21"/>
<path d="M139 16.7494L144.335 19.8186C145.312 20.3811 146.507 19.5496 146.25 18.498L144.836 12.7264L149.554 8.83784C150.415 8.12861 149.952 6.78352 148.821 6.69792L142.612 6.19657L140.183 0.742855C139.746 -0.247618 138.254 -0.247618 137.817 0.742855L135.388 6.18435L129.179 6.6857C128.048 6.77129 127.585 8.11638 128.446 8.82561L133.164 12.7141L131.75 18.4858C131.493 19.5374 132.688 20.3689 133.665 19.8064L139 16.7494Z" fill="#FFDE21"/>
</svg>
